<svg width="78" height="77" viewBox="0 0 78 77" fill="none" xmlns="http://www.w3.org/2000/svg">
<g clip-path="url(#clip0_101_105)">
<path d="M38.9279 0C17.7413 0 0.563721 17.1776 0.563721 38.3642C0.563721 59.5508 17.7413 76.7283 38.9279 76.7283C60.1145 76.7283 77.2921 59.5508 77.2921 38.3642C77.2921 17.1776 60.1145 0 38.9279 0ZM38.9279 2.49367C58.7361 2.49367 74.7956 18.5518 74.7956 38.3642C74.7956 58.1765 58.7402 74.2319 38.9279 74.2319C19.1155 74.2319 3.06013 58.1724 3.06013 38.3642C3.06013 18.5559 19.1196 2.49367 38.9279 2.49367ZM36.7603 4.50779C35.7006 4.55618 34.6427 4.63935 33.5884 4.75716L33.2459 14.1687C33.9981 14.0413 34.7558 13.9413 35.5162 13.8686L35.7396 7.51253L35.6984 7.07408L35.8355 7.48923L37.9578 12.2491H39.8952L42.0176 7.49197L42.145 7.07271L42.1135 7.51116L42.3368 13.8673C43.0781 13.9372 43.8495 14.0399 44.6072 14.1673L44.2591 4.75579C43.2049 4.637 42.147 4.55383 41.0872 4.50642L38.9991 9.70202L38.9251 10.0857L38.8512 9.70202L36.7576 4.50642L36.7603 4.50779ZM58.1675 10.3391L53.235 18.101C53.8584 18.5806 54.6805 19.2876 55.208 19.7699L59.8528 17.3598L60.1474 17.1392L59.9268 17.4393L57.5222 22.0841C58.0428 22.6431 58.795 23.5487 59.217 24.0982L66.9858 19.1615C66.5095 18.5454 66.0193 17.9401 65.5156 17.3461L60.5954 20.5879L60.2597 20.8824L60.5091 20.5152L62.6835 16.1801L61.149 14.6455L56.8138 16.8199L56.4466 17.0693L56.7371 16.7309L59.9912 11.8107C59.3952 11.3067 58.7876 10.8165 58.1689 10.3405L58.1675 10.3391ZM18.1468 12.1012C16.9959 12.219 16.1067 13.0055 13.6939 15.6978C12.857 16.6465 12.0501 17.6212 11.2742 18.6203L17.9043 24.9093C20.1007 22.48 20.9926 21.5785 22.7259 19.7521C23.9508 18.4573 24.6441 16.9707 23.4164 15.5416C22.7519 14.7675 21.6325 14.5989 20.6994 14.9826L20.6104 15.0141L20.6419 14.9305C20.7573 14.5062 20.7449 14.0572 20.6063 13.6398C20.4679 13.2219 20.2103 12.8547 19.865 12.5834C19.6247 12.3941 19.3493 12.2542 19.0546 12.1719C18.7599 12.0895 18.4519 12.0664 18.1482 12.1039L18.1468 12.1012ZM18.166 14.0673C18.6004 13.9495 19.0511 14.2591 19.1512 14.7072C19.2512 15.1552 18.9717 15.5772 18.6593 15.928C17.9564 16.7268 15.3627 19.4383 15.3627 19.4383L14.0775 18.2134C15.4107 16.5829 16.8301 15.099 17.4727 14.5112C17.6659 14.3098 17.903 14.1577 18.166 14.0673ZM38.9279 15.6115C33.2962 15.6092 27.8639 17.6963 23.6825 21.4689C19.5011 25.2415 16.8681 30.4313 16.293 36.0335V36.0404C15.9313 39.5946 16.4122 43.1843 17.6947 46.5193C18.9778 49.8538 21.0275 52.8395 23.6781 55.2352C26.3287 57.6309 29.5059 59.3693 32.9527 60.3098C36.4 61.2498 40.0185 61.3662 43.5193 60.6483C48.6491 59.5933 53.2583 56.8009 56.5672 52.7398C59.8761 48.6786 61.6806 43.6022 61.6778 38.3642C61.6713 32.3328 59.2723 26.5503 55.0072 22.2857C50.742 18.0211 44.9593 15.6228 38.9279 15.617V15.6101V15.6115ZM21.2256 16.3856C21.3763 16.3856 21.5325 16.4267 21.6736 16.5226C21.9545 16.7117 22.0833 17.0337 22.012 17.3543C21.9285 17.7352 21.6119 18.0928 21.3571 18.371L18.0167 21.9512L16.6739 20.6728L20.0144 17.1597C20.3404 16.8213 20.5515 16.6158 20.7748 16.5048C20.9136 16.4328 21.0666 16.3926 21.2228 16.387H21.2256V16.3856ZM38.9279 18.5998C41.5244 18.597 44.0959 19.1063 46.4952 20.0987C48.8943 21.0907 51.0743 22.5472 52.9103 24.3818C54.7463 26.2164 56.2014 28.3977 57.1933 30.7968C58.1857 33.1962 58.6951 35.7677 58.6923 38.3642H38.9279V58.1286C36.3314 58.1314 33.7599 57.622 31.3606 56.6296C28.9614 55.6376 26.7815 54.1812 24.9455 52.3465C23.1095 50.5119 21.6544 48.3306 20.6624 45.9315C19.6701 43.5322 19.1607 40.9606 19.1635 38.3642H38.9279V18.5998Z" fill="#A0A0A0"/>
</g>
<defs>
<clipPath id="clip0_101_105">
<rect width="76.7283" height="76.7283" fill="A0A0A0" transform="translate(0.563721)"/>
</clipPath>
</defs>
</svg>
