<svg width="170" height="77" viewBox="0 0 170 77" fill="none" xmlns="http://www.w3.org/2000/svg">
<path d="M1.99316 49.288L7.29449 42.9424C10.5242 45.4139 14.2353 46.4551 17.7187 46.4551C19.5058 46.4551 20.281 45.9784 20.281 45.1756V45.0864C20.281 44.2251 19.3582 43.776 16.17 43.1208C9.4953 41.7521 3.62955 39.845 3.62955 33.5594V33.4717C3.62955 27.8121 8.03732 23.432 16.2592 23.432C22.0081 23.432 26.2405 24.8008 29.6932 27.5122L24.8087 34.2407C22.2049 32.3644 19.0814 31.3447 15.8886 31.3217C14.3998 31.3217 13.7124 31.8292 13.7124 32.5428V32.632C13.7124 33.4348 14.5152 33.9423 17.6741 34.5391C25.2993 35.9232 30.393 38.141 30.393 44.1605V44.2189C30.393 50.4738 25.2209 54.2879 17.2589 54.2879C11.2147 54.3187 5.79191 52.6208 2.00854 49.2834L2.01008 49.285L1.99316 49.288ZM40.2959 32.429H31.5403V23.9979H59.0036V32.4259H50.2465V53.7573H40.2959V32.429ZM83.6969 43.6284C87.2988 41.8705 89.5642 38.8607 89.5642 34.5421V34.4529C89.5642 31.3863 88.6415 29.1778 86.8544 27.3907C84.7674 25.3037 81.4023 23.9949 76.1318 23.9949H61.5981V53.7543H71.5487V45.2648H73.6633L79.2615 53.7543H90.6116L83.6969 43.6284ZM79.646 35.2558C79.646 37.0752 78.188 38.144 75.8318 38.144H71.5471V32.3367H75.8995C78.1911 32.3367 79.6798 33.2595 79.6798 35.1973V35.2558H79.649H79.646ZM104.785 22.7445L88.7307 53.7573H99.3948L104.785 42.9148L110.176 53.7573H120.84L104.785 22.7445ZM151.97 22.7445L135.917 53.7573H146.581L151.971 42.9148L157.362 53.7573H168.026L151.97 22.7445ZM128.378 54.9769L144.465 23.9672H133.8L128.41 34.8097L122.989 23.9672H112.324L128.381 54.9785L128.378 54.9769Z" fill="#A0A0A0"/>
</svg>
