<svg width="108" height="77" viewBox="0 0 108 77" fill="none" xmlns="http://www.w3.org/2000/svg">
<g clip-path="url(#clip0_1500_16)">
<path fill-rule="evenodd" clip-rule="evenodd" d="M51.1757 48.4276C47.0441 45.8625 44.001 37.0099 44.001 26.4929L44.0123 25.3464L44.0176 25.3516C32.5265 23.5616 24.2239 18.657 24.0111 12.8579L23.9769 12.9251C21.165 16.3883 19.5607 20.393 19.5607 24.6602C19.5607 37.2157 33.4653 47.5043 51.1021 48.4137L51.1757 48.4276ZM14.2469 25.5757C14.2469 11.5265 31.8855 0.135864 53.6443 0.135864C75.4031 0.135864 93.0417 11.5265 93.0417 25.5757C93.0417 39.6248 75.4031 51.0163 53.6443 51.0163C31.8855 51.0163 14.2469 39.6248 14.2469 25.5757ZM53.6443 3.80749C57.8451 3.80749 61.418 10.1236 62.7412 18.9361L62.7465 18.923C70.9186 17.6622 76.6405 14.7535 76.6405 11.3687C76.6405 6.82605 66.3439 3.14745 53.6452 3.14745C40.9465 3.14745 30.6498 6.82605 30.6498 11.3687C30.6498 14.7535 36.3709 17.6622 44.543 18.923L44.5483 18.9361C45.8715 10.1236 49.4453 3.80749 53.6443 3.80749ZM56.1874 48.4137C73.8242 47.5043 87.7305 37.2157 87.7305 24.6602C87.7305 20.3939 86.1236 16.3892 83.3126 12.9251L83.2784 12.8579C83.0656 18.657 74.7656 23.5616 63.2728 25.3516L63.278 25.3464L63.2903 26.4929C63.2903 37.0108 60.2445 45.8625 56.1156 48.4276L56.1874 48.4137ZM53.6443 19.5909C55.5262 19.5909 57.3556 19.5115 59.1061 19.3581L59.1026 19.3607C58.2313 13.7115 56.1156 9.72429 53.6434 9.72429C51.1713 9.72429 49.0556 13.7115 48.1834 19.3607L48.1799 19.3581C49.9962 19.5147 51.8185 19.5924 53.6417 19.5909H53.6443ZM53.6443 40.5107C56.8065 40.5107 59.3864 33.9879 59.5238 25.8059L59.5405 25.812C57.5802 25.9904 55.6127 26.0791 53.6443 26.0779C51.624 26.0779 49.6546 25.9863 47.7481 25.812L47.7656 25.8059C47.9014 33.987 50.4812 40.5107 53.6443 40.5107ZM53.7608 67.3481C53.7608 62.1358 57.9922 57.9106 63.2097 57.9106C68.4272 57.9106 72.6604 62.1358 72.6604 67.349C72.6604 72.5622 68.4298 76.7866 63.2097 76.7866C57.9896 76.7866 53.7608 72.5604 53.7608 67.3481ZM63.2097 73.3251C66.1241 73.3251 68.4868 70.6492 68.4868 67.3481C68.4868 64.0471 66.1241 61.3712 63.2097 61.3712C60.2953 61.3712 57.9353 64.048 57.9353 67.3481C57.9353 70.6483 60.2971 73.3251 63.2097 73.3251ZM83.3818 76.3576H79.4008V61.8429H79.4139H73.8461V58.561H88.9355V61.8429H83.3949H83.3818V76.3576ZM93.7519 72.3538L93.7484 72.3573L92.2212 76.3576H87.572L94.9219 58.561H97.401H99.8767L107.228 76.3576H102.578L101.051 72.3573L101.047 72.3538H97.401H93.7519ZM97.401 69.3501H99.9056L99.9038 69.3509L97.4177 62.8369H97.3826L94.8947 69.3509L94.8939 69.3501H97.401ZM9.99354 76.3576H6.01168V61.8429H6.02569H0.457031V58.561H15.5473V61.8429H10.0076H9.99354V76.3576ZM16.5658 67.3481C16.5658 62.1358 20.7972 57.9106 26.0156 57.9106C31.2339 57.9106 35.4654 62.1358 35.4654 67.349C35.4654 72.5622 31.2348 76.7866 26.0156 76.7866C20.7963 76.7866 16.5658 72.5604 16.5658 67.3481ZM26.0156 73.3251C28.9291 73.3251 31.2917 70.6492 31.2917 67.3481C31.2917 64.0471 28.9291 61.3712 26.0156 61.3712C23.1021 61.3712 20.7394 64.048 20.7394 67.3481C20.7394 70.6483 23.1021 73.3251 26.0156 73.3251ZM44.6131 76.3576H46.6316V69.6831V69.6003L53.5769 58.561H48.9286L44.6131 66.0411L40.2976 58.561H35.6475L42.5937 69.6003V69.6831V76.3576H44.6131Z" fill="#A0A0A0"/>
</g>
<defs>
<clipPath id="clip0_1500_16">
<rect width="107" height="77" fill="#A0A0A0" transform="translate(0.728516)"/>
</clipPath>
</defs>
</svg>
