<svg width="181" height="77" viewBox="0 0 181 77" fill="none" xmlns="http://www.w3.org/2000/svg">
<g clip-path="url(#clip0_1500_12)">
<path d="M0.456543 11.244V65.7485H37.2437V11.244H0.456543ZM31.9222 60.2613H5.75817V16.7442H31.9222V60.2613Z" fill="#A0A0A0"/>
<path d="M59.1661 30.2472H59.1147C56.1809 25.3688 53.2172 21.0614 50.2291 16.7245H47.9491V35.6955H50.4663V22.0907H50.4916C53.4553 26.9875 56.4163 31.3336 59.4052 35.6965H61.6853V16.7245H59.168V30.2472H59.1661ZM77.3303 35.6955L71.4854 16.7245H68.8658L62.522 35.6955H65.2385L66.8384 30.5188H72.3673L73.8097 35.6955H77.323H77.3303ZM67.6579 28.1868C68.3914 25.6921 69.1265 23.3934 69.7813 20.4627H69.8356C70.569 23.3916 71.2246 25.6921 71.9065 28.1868H67.6597H67.6579ZM80.2913 35.6955H83.437V19.2819H88.2605V16.7245H75.4705V19.2819H80.293V35.7047L80.2913 35.6955ZM92.4004 16.7245H89.2818V35.6955H92.4004V16.7245ZM102.101 36.0189C106.898 36.0189 109.886 31.6025 109.886 25.9388C109.886 20.6262 106.581 16.3983 102.101 16.3983C97.6205 16.3983 94.3136 20.6272 94.3136 25.9388C94.3136 31.6044 97.3018 36.0189 102.101 36.0189ZM102.101 19.1091C105.22 19.1091 106.529 22.4417 106.529 25.9388C106.529 29.5698 105.377 33.31 102.101 33.31C98.8248 33.31 97.6712 29.5708 97.6712 25.9388C97.6712 22.4417 98.9815 19.1091 102.101 19.1091ZM114.313 22.0897H114.342C117.303 26.9866 120.264 31.3327 123.252 35.6955H125.532V16.7245H123.015V30.2472H122.962C120.029 25.3688 117.065 21.0614 114.077 16.7245H111.797V35.6955H114.311V22.0907L114.313 22.0897ZM130.693 30.5188H136.217L137.658 35.6955H141.17L135.338 16.7245H132.716L126.372 35.6955H129.101L130.696 30.5188H130.693ZM133.633 20.4627H133.684C134.418 23.3916 135.072 25.6921 135.756 28.1868H131.507C132.243 25.6921 132.973 23.3916 133.633 20.4627ZM151.427 33.1464H145.216V16.7245H142.095V35.6955H151.427V33.1464ZM56.6018 57.3941C55.9454 57.7471 55.2392 57.8561 54.4015 57.8561C51.7032 57.8561 49.0808 55.1988 49.0808 50.7011C49.0808 46.3928 51.3609 43.6542 54.7166 43.6542C55.9016 43.6819 57.0586 44.0275 58.0715 44.6559L59.0928 42.4079C58.0452 41.5931 56.3401 40.9435 54.6379 40.9435C49.1343 40.9435 45.7261 45.4707 45.7261 50.6448C45.7261 56.228 49.1343 60.565 54.5319 60.565C56.3158 60.565 58.0724 60.0799 59.7503 59.3989V51.564H56.6036V57.3923L56.6018 57.3941ZM65.7472 51.5677H70.8859V49.0214H65.7472V43.8177H70.9901V41.2705H62.6025V60.2398H71.9354V57.6897H65.7482V51.5659L65.7472 51.5677ZM80.6915 40.9435C76.2093 40.9435 72.9069 45.1713 72.9069 50.4839C72.9069 56.1477 75.8951 60.5659 80.6915 60.5659C85.4878 60.5659 88.4751 56.1477 88.4751 50.4839C88.4751 45.1713 85.1727 40.9435 80.6915 40.9435ZM80.6915 57.8552C77.4135 57.8552 76.2609 54.115 76.2609 50.4821C76.2609 46.985 77.5712 43.6515 80.6915 43.6515C83.8117 43.6515 85.1193 46.9841 85.1193 50.4821C85.1193 54.1132 83.9675 57.8552 80.6915 57.8552ZM100.428 57.3932C99.7737 57.7461 99.0648 57.8552 98.2262 57.8552C95.526 57.8552 92.9048 55.1979 92.9048 50.7002C92.9048 46.3919 95.1866 43.6533 98.5422 43.6533C99.7466 43.6533 101.06 44.1135 101.894 44.655L102.918 42.4069C101.87 41.592 100.165 40.9425 98.4598 40.9425C92.9581 40.9425 89.5499 45.4698 89.5499 50.6438C89.5499 56.2271 92.9572 60.5641 98.3576 60.5641C100.138 60.5641 101.893 60.0789 103.573 59.398V51.5631H100.428V57.3912L100.428 57.3932ZM117.047 46.7449C117.047 43.0565 114.87 41.2696 111.36 41.2696H106.458V60.2398H109.603V53.0848H111.018L113.979 60.2398H117.569L113.875 52.379C115.89 51.2685 117.046 49.0195 117.046 46.7429L117.047 46.7449ZM110.913 50.6457C110.596 50.6734 109.863 50.7011 109.6 50.7288V43.8177H110.992C112.85 43.8177 113.898 44.9265 113.898 46.8787C113.898 49.4252 112.407 50.5745 110.913 50.6457ZM123.965 41.2696L117.62 60.2407H120.345L121.946 55.0629H127.476L128.921 60.2407H132.431L126.585 41.2696H123.965ZM122.76 52.7356C123.485 50.2409 124.227 47.9367 124.883 45.0116H124.937C125.671 47.9376 126.325 50.2409 127.008 52.7356H122.752H122.76ZM155.446 48.5594H148.917V41.2604H145.798V60.2398H148.917V51.1049H155.446V60.2398H158.589V41.3214H155.446V48.5594ZM161.602 60.2379H164.722V41.2696H161.602V60.2379ZM175.732 57.8541C172.691 57.8541 170.121 55.197 170.121 50.6993C170.121 46.391 172.458 43.6524 175.653 43.6524C176.86 43.6524 178.118 44.2207 178.88 44.7084L179.875 42.4079C178.799 41.6485 177.282 40.9435 175.656 40.9435C170.178 40.9435 166.795 45.4707 166.795 50.6448C166.795 56.228 170.203 60.565 175.606 60.565C177.125 60.565 178.803 59.9413 179.746 59.2651L178.881 56.9062C178.068 57.4477 176.94 57.8541 175.735 57.8541H175.732ZM138.328 41.2696H133.438V60.2398H136.584V53.0848H137.996C141.747 53.0848 144.025 49.9388 144.025 46.744C144.024 43.0556 141.852 41.2687 138.336 41.2687L138.328 41.2696ZM137.884 50.6457C137.57 50.6706 136.811 50.6965 136.575 50.7214V43.8168H137.987C139.823 43.8168 140.872 44.9255 140.872 46.8778C140.871 49.4252 139.378 50.5643 137.884 50.6457Z" fill="#A0A0A0"/>
</g>
<defs>
<clipPath id="clip0_1500_12">
<rect width="180" height="77" fill="#A0A0A0" transform="translate(0.728271)"/>
</clipPath>
</defs>
</svg>
