<svg width="228" height="77" viewBox="0 0 228 77" fill="none" xmlns="http://www.w3.org/2000/svg">
<path d="M0 26.285V50.3915H6.39469V42.3229H12.18L27.1519 50.4434H37.658L21.6201 41.7654H23.7522C32.6332 41.7654 35.5778 38.6192 35.5778 34.0008C35.5778 29.4327 31.8223 26.2865 23.601 26.2865H0V26.285ZM6.39469 31.0562H24.2592C27.355 31.0562 29.791 31.5128 29.791 33.9992C29.791 36.6888 27.3046 37.1454 24.2592 37.1454H10.5565L6.34429 39.1248L6.39469 31.0562ZM130.478 26.1842L113.629 44.3022H113.579L96.7298 26.1842H87.7464L110.433 50.3915H116.777L139.461 26.1842H130.478ZM203.775 26.3216C195.554 26.3827 191.821 29.5564 191.856 34.1749C191.891 38.7933 194.856 41.9181 203.738 41.8509L205.869 41.8357L189.897 50.5824L200.452 50.5045L215.312 42.274L221.097 42.2312L221.157 50.2998L227.551 50.2525L227.373 26.146L203.775 26.3216ZM221.074 39.0835L216.847 37.1363L203.144 37.2386C200.1 37.2615 197.609 36.8232 197.589 34.1336C197.571 31.6472 200.004 31.1723 203.1 31.1493L220.963 31.0165L221.074 39.0851V39.0835ZM180.983 45.5393L181.02 50.2586L146.714 50.5747L146.527 26.4698L180.834 26.1536L180.87 31.0256L152.807 31.244L152.895 36.1664L180.909 35.9496L180.945 40.568L152.83 40.7864L152.868 45.7592L180.983 45.5408V45.5393ZM81.0997 31.0562V26.3369L46.7926 26.285V50.3915L81.0997 50.4419V45.5699H53.0346L53.085 40.6475H81.0997V36.029H52.9842V31.0562H81.0997Z" fill="#A0A0A0"/>
</svg>
