<svg width="222" height="77" viewBox="0 0 222 77" fill="none" xmlns="http://www.w3.org/2000/svg">
<g clip-path="url(#clip0_1500_22)">
<path fill-rule="evenodd" clip-rule="evenodd" d="M31.9869 32.4881C35.1148 35.7932 37.6768 41.1937 36.2117 44.4081C32.2935 52.9993 3.05995 68.0625 0.578209 65.4572C-1.90354 62.852 12.456 32.1532 20.642 28.0424C23.7021 26.5042 28.8735 29.1915 32.0014 32.4795L31.9911 32.4924L31.9869 32.4881Z" fill="#A0A0A0"/>
<path fill-rule="evenodd" clip-rule="evenodd" d="M47.562 29.5055C47.0431 27.5679 45.7177 25.6092 43.7389 25.3805C40.1132 24.957 34.3974 31.4157 34.805 32.951C35.2125 34.4862 43.2872 37.1861 46.3037 35.005C47.8582 33.8784 48.0765 31.4475 47.5641 29.5055L47.5578 29.5076L47.562 29.5055ZM36.3406 11.6033C39.0335 12.3381 41.7538 14.208 42.0752 17.0032C42.6633 22.1278 33.679 30.2043 31.5469 29.6285C29.4148 29.0525 25.6547 17.6427 28.6901 13.3779C30.2572 11.1798 33.6412 10.8706 36.3363 11.5927V11.6033H36.3406ZM101.434 40.1995L99.3335 39.8819C97.3527 39.5854 96.1827 38.9396 96.1827 37.7642C96.1827 36.4132 97.653 35.5747 99.8839 35.5747C101.445 35.5747 102.715 36.1676 103.932 36.788L104.173 36.9108C104.45 37.0537 104.757 37.1278 105.068 37.1269C105.791 37.1269 106.455 36.7309 106.803 36.0955L106.971 35.7865C107.104 35.5453 107.187 35.2794 107.215 35.0049C107.243 34.7303 107.215 34.4531 107.133 34.1897C106.969 33.654 106.604 33.222 106.108 32.97C104.335 32.0764 102.411 31.2717 99.8818 31.2717C94.5882 31.2717 91.1811 33.8466 91.1811 37.993C91.1811 41.3959 93.6073 43.5305 98.1971 44.1638L100.298 44.439C102.514 44.7523 103.591 45.4131 103.591 46.4613C103.591 47.429 103.073 48.7144 99.6381 48.7144C97.7476 48.7144 95.8234 48.2273 94.2605 47.2322C93.9503 47.0338 93.5903 46.9287 93.2228 46.9293C92.5381 46.9293 91.8868 47.2956 91.5255 47.8865L91.41 48.0982C91.1202 48.5726 91.0319 49.1528 91.1706 49.6928C91.3092 50.2328 91.6474 50.6754 92.1221 50.9464C94.8424 52.488 98.0038 53.0365 99.636 53.0365C105.152 53.0365 108.568 50.6012 108.568 46.3109C108.568 42.8805 106.152 40.9111 101.384 40.2229L101.434 40.1995ZM165.58 47.6916C165.382 47.4716 165.14 47.2953 164.87 47.174C164.601 47.0526 164.308 46.9888 164.013 46.9864C163.609 46.9863 163.214 47.1023 162.873 47.3211C161.751 48.0411 160.52 48.4222 159.315 48.4222C156 48.4222 153.594 45.7837 153.594 42.1477C153.594 38.5118 156 35.8733 159.315 35.8733C160.555 35.864 161.769 36.2355 162.794 36.9384C163.214 37.2044 163.709 37.3178 164.201 37.2601C164.692 37.2023 165.147 36.9767 165.494 36.6208L165.671 36.409C165.901 36.1613 166.076 35.8657 166.18 35.5432C166.286 35.2205 166.319 34.8786 166.28 34.5412C166.203 33.8699 165.859 33.2708 165.284 32.9001C163.654 31.8095 161.633 31.2357 159.44 31.2357C153.076 31.2357 148.635 35.7144 148.635 42.1287C148.635 48.5429 153.078 53.0216 159.44 53.0216C161.642 53.0216 163.676 52.4329 165.315 51.3233C165.586 51.139 165.815 50.8983 165.986 50.6174C166.157 50.3365 166.266 50.022 166.307 49.6949C166.348 49.3645 166.318 49.0291 166.219 48.7113C166.121 48.3934 165.956 48.1006 165.736 47.8526L165.58 47.6916ZM62.6233 23.8812C62.2318 23.8795 61.8438 23.9565 61.4822 24.108C61.1206 24.2593 60.7926 24.482 60.5177 24.7629C60.2425 25.0438 60.0258 25.3772 59.8802 25.7436C59.7347 26.11 59.6632 26.5021 59.6698 26.8967C59.6698 28.5908 60.9386 29.8741 62.6233 29.8741C64.3081 29.8741 65.6145 28.5674 65.6145 26.8967C65.6185 26.4996 65.5438 26.1057 65.3948 25.738C65.246 25.3704 65.0258 25.0364 64.7472 24.7556C64.4687 24.4748 64.1374 24.2528 63.7726 24.1027C63.408 23.9525 63.0172 23.8772 62.6233 23.8812ZM63.514 31.4284H61.7705C60.9176 31.4284 60.2244 32.1272 60.2244 32.987V50.9528C60.2244 51.8125 60.9176 52.5114 61.7705 52.5114H63.514C64.3668 52.5114 65.06 51.8125 65.06 50.9528V32.9891C65.06 32.1293 64.3668 31.4305 63.514 31.4305V31.4284ZM120.705 48.327C118.752 48.3185 116.479 46.7747 116.479 44.0917V35.9897H120.722C121.575 35.9897 122.268 35.2909 122.268 34.4311V33.0081C122.268 32.1484 121.575 31.4496 120.722 31.4496H116.479V26.7739C116.479 25.9141 115.785 25.2153 114.933 25.2153H113.095C112.242 25.2153 111.549 25.9141 111.549 26.7739V43.7994C111.549 48.7017 115.239 53.0322 120.371 53.0322C120.884 53.0322 121.363 52.831 121.726 52.4647C121.905 52.2866 122.047 52.0742 122.144 51.8401C122.241 51.6059 122.29 51.3546 122.289 51.101V49.9002C122.287 49.485 122.121 49.0877 121.828 48.7955C121.536 48.5032 121.14 48.34 120.728 48.3418L120.705 48.327ZM78.4934 31.2526C72.3092 31.2526 68.86 36.2374 68.86 40.5066V50.9528C68.86 51.8125 69.5532 52.5114 70.4061 52.5114H72.1706C73.0234 52.5114 73.7167 51.8125 73.7167 50.9528V41.2922C73.7167 38.0586 75.6597 35.9135 78.4955 35.9135C81.3314 35.9135 83.2744 38.0565 83.2744 41.2922V50.9528C83.2744 51.8125 83.9676 52.5114 84.8204 52.5114H86.585C87.4378 52.5114 88.131 51.8125 88.131 50.9528V40.5087C88.131 36.2417 84.6817 31.2547 78.4977 31.2547L78.4934 31.2526ZM205.692 31.4707C205.02 31.3224 203.339 31.2547 202.471 31.2547L202.261 31.2569C197.471 31.2569 193.051 35.1914 193.051 40.6167V50.9506C193.051 51.8104 193.745 52.5092 194.599 52.5092H196.363C197.215 52.5092 197.909 51.8104 197.909 50.9506V40.7946C197.909 37.8427 199.999 35.9178 202.562 35.9178C203.03 35.9241 203.534 35.9812 204.028 36.0765C204.163 36.104 204.301 36.1189 204.435 36.1189C204.911 36.1169 205.371 35.9544 205.744 35.6572C206.116 35.3601 206.378 34.9455 206.49 34.4799L206.794 33.2029C206.838 33.018 206.844 32.8263 206.814 32.6389C206.784 32.4513 206.717 32.2717 206.617 32.1103C206.517 31.9479 206.387 31.8077 206.233 31.6978C206.077 31.588 205.903 31.5108 205.716 31.4707H205.692ZM218.593 35.9664C219.446 35.9664 220.139 35.2676 220.139 34.4078V32.9849C220.139 32.1251 219.446 31.4263 218.593 31.4263H214.35V26.7675C214.35 25.9078 213.657 25.209 212.804 25.209H210.966C210.114 25.209 209.42 25.9078 209.42 26.7675V43.7931C209.42 48.6954 213.11 53.0259 218.242 53.0259C218.755 53.0259 219.234 52.8248 219.597 52.4584C219.777 52.2803 219.918 52.0678 220.015 51.8337C220.112 51.5995 220.162 51.3483 220.16 51.0947V49.894C220.159 49.4787 219.992 49.0813 219.7 48.7891C219.408 48.4969 219.011 48.3338 218.599 48.3354C216.646 48.327 214.373 46.7832 214.373 44.1002V35.9812H218.616L218.593 35.9664ZM184.99 32.9234C183.351 31.8286 181.331 31.2293 179.137 31.2293L179.024 31.2314L178.91 31.2293C176.718 31.2293 174.698 31.8053 173.067 32.8937C170.126 34.7615 168.332 38.0501 168.332 42.1202C168.332 46.3851 170.299 49.7901 173.485 51.5965C175.046 52.5233 176.825 53.011 178.636 53.0089C182.108 53.011 184.202 51.0289 184.864 50.1629V50.9082C184.864 51.768 185.558 52.4668 186.41 52.4668H188.174C189.028 52.4668 189.72 51.768 189.72 50.9082V42.1202C189.72 38.0501 187.929 34.7615 184.994 32.9001L184.99 32.9234ZM180.965 48.0918C180.412 48.2787 179.837 48.3869 179.255 48.4137L179.13 48.418L179.024 48.4201L178.919 48.418L178.794 48.4137C178.211 48.3869 177.635 48.2787 177.084 48.0918C174.804 47.2808 173.292 45.0255 173.292 42.1626C173.292 38.7574 175.4 36.2289 178.389 35.9199H178.438L178.642 35.9051L178.757 35.8987H178.957L179.027 35.8966L179.096 35.8987H179.295L179.411 35.9051L179.614 35.9199H179.663C182.652 36.2289 184.761 38.7574 184.761 42.1626C184.761 45.0425 183.248 47.2999 180.969 48.0918H180.965ZM141.012 32.9234C139.373 31.8286 137.352 31.2293 135.159 31.2293L135.046 31.2314L134.932 31.2293C132.739 31.2293 130.719 31.8053 129.089 32.8937C126.148 34.7615 124.354 38.0501 124.354 42.1202C124.354 46.3851 126.32 49.7901 129.507 51.5965C131.067 52.5233 132.846 53.011 134.657 53.0089C138.13 53.011 140.224 51.0289 140.886 50.1629V50.9082C140.886 51.768 141.579 52.4668 142.432 52.4668H144.196C145.049 52.4668 145.742 51.768 145.742 50.9082V42.1202C145.742 38.0501 143.95 34.7615 141.016 32.9001L141.012 32.9234ZM136.985 48.0939C136.432 48.2808 135.857 48.389 135.275 48.4158L135.149 48.4201L135.044 48.4222L134.939 48.4201L134.813 48.4158C134.231 48.389 133.655 48.2808 133.103 48.0939C130.824 47.2829 129.311 45.0276 129.311 42.1647C129.311 38.7595 131.42 36.2311 134.409 35.922L134.458 35.9178L134.662 35.9029L134.777 35.8966L134.977 35.8923L135.046 35.8902L135.115 35.8923L135.315 35.8966L135.43 35.9029L135.634 35.9178L135.682 35.922C138.672 36.2311 140.781 38.7595 140.781 42.1647C140.781 45.0446 139.268 47.302 136.989 48.0939H136.985Z" fill="#A0A0A0"/>
</g>
<defs>
<clipPath id="clip0_1500_22">
<rect width="221" height="77" fill="white" transform="translate(0.728516)"/>
</clipPath>
</defs>
</svg>
