<svg width="279" height="77" viewBox="0 0 279 77" fill="none" xmlns="http://www.w3.org/2000/svg">
<g clip-path="url(#clip0_1500_9)">
<path d="M21.2087 24.0638C21.2087 21.0562 18.3515 20.3043 16.0958 20.3043V20.7555C17.4492 20.7555 18.5019 21.2066 18.5019 22.2592C18.5019 22.8607 18.0507 23.763 16.6973 23.763C15.6447 23.763 13.389 23.1615 11.7349 22.56C9.77996 21.8081 7.97543 21.2066 6.47165 21.2066C3.4641 21.2066 1.35881 23.4623 1.35881 26.0187C1.35881 28.2743 3.01296 29.0262 3.61447 29.327L3.76485 29.0262C3.4641 28.7255 3.01296 28.4247 3.01296 27.5224C3.01296 26.9209 3.61447 25.8683 5.11825 25.8683C6.47165 25.8683 8.27618 26.4698 10.6822 27.2217C12.7875 27.8232 15.0432 28.2743 16.2462 28.4247V33.0864L13.9905 35.0413V35.1917L16.2462 37.1466V43.6129C15.0432 44.3647 13.6898 44.5151 12.4868 44.5151C10.2311 44.5151 8.27618 43.9136 6.62203 42.1091L12.7875 39.1015V28.7255L5.26863 32.0338C5.87014 30.0789 7.52429 28.7255 9.17845 27.8232L9.02807 27.3721C4.51674 28.5751 0.456543 32.7857 0.456543 37.8985C0.456543 43.9136 5.41901 48.4249 10.983 48.4249C16.9981 48.4249 20.9079 43.6129 20.9079 38.6504H20.6072C19.7049 40.6053 18.3515 42.4098 16.6973 43.3121V37.1466L19.1034 35.1917V35.0413L16.6973 33.0864V28.4247C18.953 28.4247 21.2087 26.9209 21.2087 24.0638ZM8.1258 40.6053L6.32127 41.5076C5.26863 40.1542 4.66712 38.3496 4.66712 35.7932C4.66712 34.7406 4.66712 33.5376 4.96787 32.6353L8.1258 31.2819V40.6053ZM24.0658 44.064L22.1109 45.5678L22.4117 45.8685L23.3139 45.1166L26.6223 48.1242L31.1336 45.1166L30.9832 44.8159L29.7802 45.5678L28.2764 44.064V33.8383L29.4794 32.936L32.0359 35.0413V44.2144C32.0359 49.9287 30.8328 50.831 28.2764 51.7333V52.1844C32.487 52.3348 36.3968 50.9814 36.3968 43.6129V33.6879L37.7502 32.6353L37.4495 32.3345L36.2464 33.2368L32.487 30.0789L28.2764 33.2368V20.9058H27.9757L22.7124 24.5149V24.8157C23.3139 25.1164 24.2162 25.4172 24.2162 27.0713L24.0658 44.064ZM51.585 42.4098L47.8255 45.267L44.0661 42.2595V40.4549L51.1338 35.6428V35.4925L47.5248 30.0789L39.7051 34.2894V44.2144L38.2013 45.4174L38.5021 45.7181L39.8555 44.6655L44.9683 48.4249L51.7353 43.0113L51.585 42.4098ZM44.0661 39.8534V32.4849L44.3668 32.3345L47.6751 37.5978L44.0661 39.8534ZM80.3071 22.7104C80.3071 22.2592 80.1567 21.8081 80.0063 21.357H79.7056C79.2544 22.56 78.6529 23.1615 77.1492 23.1615C75.7958 23.1615 74.8935 22.4096 74.292 21.8081L69.931 26.7706L70.2318 27.0713L71.7356 25.7179C72.6378 26.4698 73.3897 27.0713 75.495 27.2217V39.703L66.6227 24.5149C65.8708 23.3119 64.8182 21.6577 62.7129 21.6577C60.3069 21.6577 58.2016 23.763 58.5023 27.0713H58.9535C59.1038 26.1691 59.555 25.1164 60.6076 25.1164C61.3595 25.1164 62.1114 25.8683 62.5625 26.6202V31.5826C59.8557 31.5826 58.0512 32.7857 58.0512 35.0413C58.0512 36.2444 58.6527 38.0489 60.4572 38.5V38.1993C60.1565 37.8985 60.0061 37.5978 60.0061 37.1466C60.0061 36.3947 60.6076 35.7932 61.6603 35.7932H62.4121V42.1091C59.2542 42.1091 56.6978 43.9136 56.6978 46.9212C56.6978 49.7783 59.1038 51.1317 61.8106 50.9814V50.6806C60.1565 50.5302 59.4046 49.7783 59.4046 48.7257C59.4046 47.3723 60.3069 46.7708 61.5099 46.7708C62.7129 46.7708 63.7655 47.5227 64.5174 48.4249L68.8784 43.6129L68.5776 43.3121L67.525 44.5151C65.8708 43.0113 64.9686 42.5602 63.0137 42.2595V27.2217L75.0439 48.2746H75.9461V27.2217C78.2018 27.0713 80.3071 25.2668 80.3071 22.7104ZM91.2847 42.4098L87.5252 45.267L83.7658 42.2595V40.4549L90.8335 35.6428V35.4925L87.2245 30.0789L79.4048 34.2894V44.2144L77.901 45.4174L78.2018 45.7181L79.5552 44.6655L84.668 48.4249L91.435 43.0113L91.2847 42.4098ZM83.7658 39.8534V32.4849L84.0665 32.3345L87.3748 37.5978L83.7658 39.8534ZM115.796 31.733L114.744 32.4849L111.886 30.0789L108.578 33.0864L109.931 34.4398V45.7181L106.322 43.4625V34.1391L107.525 33.3872L104.067 30.0789L100.758 33.0864L102.112 34.4398V45.267L101.661 45.5678L98.5028 43.3121V34.2894C98.5028 32.1842 97.4501 31.5826 96.2471 30.8308C95.1945 30.0789 94.593 29.6277 94.593 28.5751C94.593 27.6728 95.4952 27.2217 95.9464 26.9209V26.6202C94.7433 26.6202 91.5854 27.8232 91.5854 30.6804C91.5854 32.1842 92.3373 32.7857 93.0892 33.5376C93.8411 34.2894 94.593 34.891 94.593 36.2444V44.9663L92.9388 46.1693L93.2396 46.47L94.7433 45.267L98.202 48.2746L101.961 45.7181L106.172 48.2746L114.142 43.6129V33.5376L116.097 32.0338L115.796 31.733ZM143.766 23.4623L142.263 24.8157L138.954 21.8081L133.992 25.4172V22.1089H133.541L133.691 46.47C133.24 46.47 131.887 46.1693 130.834 45.8685L130.533 25.5675C130.533 24.0638 129.481 21.9585 126.774 21.9585C124.067 21.9585 122.262 24.0638 122.262 26.1691H122.714C122.864 25.2668 123.315 24.5149 124.217 24.5149C125.12 24.5149 125.872 25.1164 125.872 27.0713V32.936C123.165 33.0864 121.511 34.5902 121.511 36.5451C121.511 37.7481 122.112 39.5527 123.917 39.5527V39.2519C123.315 38.9512 123.165 38.5 123.165 38.1993C123.165 37.297 123.917 36.9962 125.12 36.9962H125.721V46.3197C123.465 47.0715 122.563 48.7257 122.563 50.5302C122.563 53.0867 124.518 54.8912 127.526 54.8912C129.631 54.8912 131.436 54.5904 133.24 54.1393C134.744 53.8385 136.699 53.3874 137.601 53.3874C138.804 53.3874 139.255 53.9889 139.255 54.7408C139.255 55.7934 138.804 56.2446 138.202 56.395V56.6957C140.609 56.2446 142.112 54.7408 142.112 52.4851C142.112 50.2295 139.857 48.8761 137.451 48.8761C136.248 48.8761 133.691 49.3272 131.887 49.628C129.781 50.0791 127.676 50.3799 127.075 50.3799C126.022 50.3799 124.819 49.9287 124.819 48.4249C124.819 47.2219 125.872 46.1693 128.428 46.1693C129.781 46.1693 131.436 46.3197 133.09 46.7708C134.894 47.2219 136.548 47.6731 138.052 47.6731C140.308 47.6731 142.263 46.9212 142.263 43.7632V25.2668L144.067 23.763L143.766 23.4623ZM137.601 32.6353C137.15 33.0864 136.548 33.5376 135.796 33.5376C135.045 33.5376 134.293 33.0864 133.992 32.6353V26.0187L135.496 24.966L137.601 26.9209V32.6353ZM137.601 37.1466C137.3 36.8459 136.548 36.3947 135.796 36.3947C135.045 36.3947 134.293 36.8459 133.992 37.1466V33.2368C134.293 33.5376 135.045 33.9887 135.796 33.9887C136.548 33.9887 137.3 33.5376 137.601 33.2368V37.1466ZM137.601 44.2144C137.601 45.4174 136.849 46.6204 135.195 46.6204H133.992V37.7481C134.293 37.4474 135.045 36.9962 135.796 36.9962C136.548 36.9962 137.15 37.4474 137.601 37.7481V44.2144ZM158.203 33.5376L153.391 30.0789L146.022 34.2894V44.064L144.518 45.267L144.669 45.5678L145.872 44.6655L150.684 48.2746L158.203 43.7632V33.5376ZM150.082 43.0113V32.1842L153.842 34.891V45.5678L150.082 43.0113ZM172.489 30.3796H172.188C171.737 30.6804 171.286 30.9811 170.834 30.9811C170.233 30.9811 169.481 30.6804 169.18 30.2292H168.88L166.323 33.0864L163.767 30.2292L159.255 33.2368L159.406 33.5376L160.609 32.7857L162.113 34.4398V43.9136L160.158 45.4174L160.458 45.7181L161.361 44.9663L164.97 47.9738L169.631 44.8159L169.481 44.5151L168.128 45.267L166.323 43.7632V33.2368C167.075 33.9887 167.977 34.7406 169.03 34.7406C171.135 34.891 172.338 32.7857 172.489 30.3796ZM190.534 44.8159L185.421 48.2746L178.504 37.7481L183.466 30.0789H183.767C184.368 30.6804 185.271 31.2819 186.323 31.2819C187.376 31.2819 188.128 30.6804 188.579 30.0789H188.88C188.729 33.0864 186.624 34.891 185.12 34.891C183.617 34.891 182.865 34.1391 181.962 33.6879L181.511 34.4398L189.03 45.5678L190.534 44.6655V44.8159ZM173.992 44.064L172.037 45.5678L172.338 45.8685L173.24 45.1166L176.549 48.1242L181.06 45.1166L180.759 44.8159L179.556 45.5678L178.053 44.064V20.9058H177.902L172.489 24.5149V24.8157C173.09 25.1164 173.992 25.2668 173.992 27.0713V44.064ZM215.497 24.0638C215.497 21.0562 212.639 20.3043 210.384 20.3043V20.7555C211.737 20.7555 212.79 21.2066 212.79 22.2592C212.79 22.8607 212.339 23.763 210.985 23.763C209.933 23.763 207.677 23.1615 206.023 22.56C204.068 21.9585 202.263 21.357 200.76 21.357C197.752 21.357 195.647 23.6126 195.647 26.1691C195.647 28.4247 197.301 29.1766 197.902 29.4774L198.053 29.1766C197.602 28.8758 197.151 28.5751 197.151 27.6728C197.151 27.0713 197.752 26.0187 199.256 26.0187C200.609 26.0187 202.414 26.6202 204.82 27.3721C206.925 27.9736 209.181 28.4247 210.384 28.5751V33.2368L208.128 35.1917V35.3421L210.384 37.297V43.7632C209.181 44.5151 207.827 44.6655 206.624 44.6655C204.369 44.6655 202.414 44.064 200.76 42.2595L206.925 39.2519V28.7255L199.406 32.0338C200.158 30.0789 201.812 28.7255 203.316 27.6728L203.166 27.3721C198.654 28.5751 194.594 32.6353 194.594 37.7481C194.594 43.7632 199.557 48.2746 205.121 48.2746C211.136 48.2746 215.045 43.4625 215.045 38.5H214.745C213.842 40.4549 212.489 42.2595 210.835 43.1617V36.9962L213.241 35.0413V34.891L210.985 32.936V28.4247C213.241 28.4247 215.497 26.9209 215.497 24.0638ZM202.414 40.6053L200.609 41.5076C199.557 40.1542 198.955 38.3496 198.955 35.7932C198.955 34.7406 199.105 33.5376 199.406 32.6353L202.564 31.2819L202.414 40.6053ZM220.76 22.56H220.609L217.602 25.1164V25.2668L220.158 28.124H220.459L223.467 25.5675V25.4172L220.76 22.56ZM225.271 44.8159L224.068 45.5678L222.564 44.064V33.6879L224.068 32.6353L223.767 32.3345L222.715 33.2368L220.008 30.0789L215.647 33.0864L215.948 33.5376L217 32.7857L218.354 34.4398V44.2144L216.399 45.7181L216.549 46.0189L217.602 45.267L220.91 48.2746L225.422 45.267L225.271 44.8159ZM250.384 44.6655L249.332 45.4174L247.677 43.9136V33.6879L249.181 32.4849L248.88 32.1842L247.677 33.2368L244.219 30.0789L239.707 33.2368L236.249 30.0789L232.038 33.2368L229.331 30.0789L224.97 33.0864L225.121 33.5376L226.173 32.7857L227.677 34.4398V44.2144L226.474 45.4174L229.933 48.2746L233.241 45.267L231.888 43.9136V33.6879L233.241 32.7857L235.497 34.891V43.9136L234.294 45.1166L237.753 47.9738L241.061 44.9663L239.707 43.6129V33.6879L240.91 32.936L243.316 35.0413V44.064L242.264 45.1166L245.723 48.2746L250.384 45.1166V44.6655ZM263.467 42.4098L259.708 45.267L255.948 42.2595V40.4549L263.016 35.6428V35.4925L259.407 30.0789L251.587 34.2894V44.5151L256.85 48.2746L263.617 42.861L263.467 42.4098ZM255.948 39.8534V32.4849L256.249 32.3345L259.557 37.5978L255.948 39.8534ZM277.151 38.5L274.294 36.2444C276.249 34.5902 277.001 32.3345 277.001 30.8308V29.9285H276.7C276.4 30.6804 275.798 31.4323 274.595 31.4323C273.392 31.4323 272.64 30.8308 271.888 29.9285L265.121 33.6879V39.1015L267.678 41.0564C265.121 43.3121 264.67 44.8159 264.67 46.0189C264.67 47.5227 265.422 48.5753 266.625 49.0265L266.775 48.7257C266.475 48.4249 266.174 48.2746 266.174 47.5227C266.174 47.0715 266.775 46.3197 267.978 46.3197C269.482 46.3197 270.384 47.3723 270.836 47.8234L277.302 43.9136V38.5H277.151ZM275.497 33.9887C274.445 35.7932 272.189 37.5978 270.836 38.5L269.181 37.1466V31.8834C269.783 33.3872 271.437 34.5902 273.091 34.5902C274.144 34.5902 274.745 34.4398 275.497 33.9887ZM272.941 46.0189C272.189 44.3647 270.384 43.1617 268.58 43.1617C268.129 43.1617 266.926 43.1617 265.723 43.9136C266.475 42.7106 268.43 40.6053 270.986 39.1015L272.791 40.6053L272.941 46.0189Z" fill="#A0A0A0"/>
</g>
<defs>
<clipPath id="clip0_1500_9">
<rect width="278" height="77" fill="A0A0A0" transform="translate(0.728271)"/>
</clipPath>
</defs>
</svg>
