<svg width="42" height="42" viewBox="0 0 42 42" fill="none" xmlns="http://www.w3.org/2000/svg">
<g clip-path="url(#clip0_1439_2)">
<rect width="42" height="42" rx="21" fill="white"/>
<path d="M21 0C9.40158 0 0 9.40158 0 21C0 32.5984 9.40158 42 21 42C32.5984 42 42 32.5984 42 21C42 9.40158 32.5984 0 21 0ZM30.9685 26.1496C23.7874 33.3307 10.9606 31.0394 10.9606 31.0394C10.9606 31.0394 8.64567 18.2362 15.8504 11.0315C19.8425 7.03937 26.4567 7.20473 30.6378 11.3622C34.8189 15.5197 34.9606 22.1575 30.9685 26.1496Z" fill="#111111"/>
<path d="M23.4085 12.3066L21.3533 16.535L17.125 18.5901L21.3533 20.6452L23.4085 24.8736L25.4636 20.6452L29.6919 18.5901L25.4636 16.535L23.4085 12.3066Z" fill="#111111"/>
</g>
<defs>
<clipPath id="clip0_1439_2">
<rect width="42" height="42" rx="21" fill="white"/>
</clipPath>
</defs>
</svg>
