<svg width="1920" height="551" viewBox="0 0 1920 551" fill="none" xmlns="http://www.w3.org/2000/svg">
<path d="M1849.56 314.642C1850.17 313.607 1851.66 313.607 1852.27 314.642L1885.44 371.042C1886.27 372.452 1884.66 374.034 1883.26 373.185L1851.73 354.035C1851.23 353.73 1850.6 353.73 1850.1 354.035L1818.56 373.185C1817.17 374.034 1815.56 372.452 1816.39 371.042L1849.56 314.642Z" fill="#EDEDED"/>
<path d="M1273.6 101.864C1239.25 101.864 1206.28 116.265 1182.34 141.556V7.72762C1182.34 3.51255 1178.87 0 1174.7 0H1128.2C1124.04 0 1120.57 3.51255 1120.57 7.72762V369.52C1120.57 373.735 1124.04 377.248 1128.2 377.248H1174.7C1178.87 377.248 1182.34 373.735 1182.34 369.52V344.581C1206.28 369.872 1238.9 384.273 1273.6 384.273C1346.13 384.273 1404.77 321.047 1404.77 243.069C1404.77 165.09 1346.13 101.864 1273.6 101.864ZM1262.84 327.721C1218.77 327.721 1183.03 290.488 1182.68 244.122V242.015C1183.38 195.649 1218.77 158.416 1262.84 158.416C1307.26 158.416 1343 196.352 1343 243.069C1343 289.785 1306.91 327.721 1262.84 327.721Z" fill="#007AFB"/>
<path d="M1575.87 101.877C1497.45 101.877 1433.94 165.103 1433.94 243.082C1433.94 321.06 1497.45 384.286 1575.87 384.286C1654.29 384.286 1717.8 321.06 1717.8 243.082C1717.8 165.103 1654.29 101.877 1575.87 101.877ZM1575.52 327.734C1531.11 327.734 1495.36 289.798 1495.36 243.082C1495.36 196.365 1531.45 158.429 1575.52 158.429C1619.59 158.429 1655.68 196.365 1655.68 243.082C1655.68 289.798 1619.59 327.734 1575.52 327.734Z" fill="#007AFB"/>
<path d="M707.963 108.902H661.463C657.299 108.902 653.829 112.415 653.829 116.63V141.569C629.885 116.278 597.266 101.877 562.565 101.877C490.039 101.877 431.394 165.103 431.394 243.082C431.394 321.06 490.039 384.286 562.565 384.286C596.919 384.286 629.885 369.885 653.829 344.594V369.533C653.829 373.748 657.299 377.261 661.463 377.261H707.963C712.127 377.261 715.597 373.748 715.597 369.533V116.63C715.597 112.415 712.127 108.902 707.963 108.902ZM573.322 327.734C528.905 327.734 493.162 289.798 493.162 243.082C493.162 196.365 529.252 158.429 573.322 158.429C617.392 158.429 653.135 195.662 653.482 242.028V244.135C653.135 290.501 617.392 327.734 573.322 327.734Z" fill="#007AFB"/>
<path d="M940.119 101.877C905.765 101.877 872.799 116.278 848.855 141.569V116.63C848.855 112.415 845.385 108.902 841.221 108.902H794.721C790.557 108.902 787.087 112.415 787.087 116.63V571.691C787.087 575.906 790.557 579.419 794.721 579.419H841.221C845.385 579.419 848.855 575.906 848.855 571.691V344.594C872.799 369.885 905.418 384.286 940.119 384.286C1012.64 384.286 1071.29 321.06 1071.29 243.082C1071.29 165.103 1012.64 101.877 940.119 101.877ZM929.362 327.734C885.291 327.734 849.549 290.501 849.202 244.135V242.028C849.896 195.662 885.291 158.429 929.362 158.429C973.779 158.429 1009.52 196.365 1009.52 243.082C1009.52 289.798 973.779 327.734 929.362 327.734Z" fill="#007AFB"/>
<path d="M292.247 101.874C257.546 102.225 225.968 122.598 211.046 154.562C194.043 121.895 160.036 101.523 123.6 101.874C95.1446 101.874 68.4246 115.924 51.7681 139.107V116.627C51.7681 112.412 48.298 108.899 44.1338 108.899H-2.36575C-6.52989 108.899 -10 112.412 -10 116.627V369.53C-10 373.745 -6.52989 377.258 -2.36575 377.258H44.1338C48.298 377.258 51.7681 373.745 51.7681 369.53V218.139C53.5031 184.419 76.7529 157.372 105.208 157.372C134.704 157.372 159.342 182.311 159.342 214.978V369.53C159.342 373.745 162.812 377.258 166.976 377.258H213.823C217.987 377.258 221.457 373.745 221.457 369.53L221.11 212.168C225.274 181.258 247.136 157.372 273.856 157.372C303.352 157.372 327.989 182.311 327.989 214.978V369.53C327.989 373.745 331.459 377.258 335.624 377.258H382.47C386.634 377.258 390.104 373.745 390.104 369.53L389.757 195.659C389.757 143.673 346.034 101.874 292.247 101.874Z" fill="#007AFB"/>
<path d="M1967.96 366.364L1887.45 242.371L1967.26 119.432C1969.35 116.271 1968.31 111.704 1965.18 109.597C1964.14 108.894 1962.75 108.543 1961.37 108.543H1907.58C1903.41 108.543 1899.6 110.65 1897.52 114.163L1850.67 193.898L1803.82 114.514C1801.74 111.002 1797.92 108.894 1793.76 108.894H1739.97C1736.16 108.894 1733.03 112.056 1733.03 115.919C1733.03 117.324 1733.38 118.729 1734.07 119.783L1813.89 242.722L1733.38 366.716C1731.3 369.877 1732.34 374.443 1735.46 376.551C1736.5 377.253 1737.89 377.604 1739.28 377.604H1793.07C1797.23 377.604 1801.05 375.497 1803.13 371.984L1851.02 291.196L1898.9 371.984C1900.99 375.497 1904.8 377.604 1908.97 377.604H1962.06C1965.88 377.604 1969 374.443 1969 370.579C1969 369.174 1968.65 367.769 1967.96 366.364Z" fill="#007AFB"/>
</svg>
