<svg width="187" height="42" viewBox="0 0 187 42" fill="none" xmlns="http://www.w3.org/2000/svg">
<path d="M139.277 11.5047C136.938 11.5047 134.694 12.4732 133.064 14.174V5.17398C133.064 4.89052 132.828 4.6543 132.544 4.6543H129.379C129.095 4.6543 128.859 4.89052 128.859 5.17398V29.5047C128.859 29.7882 129.095 30.0244 129.379 30.0244H132.544C132.828 30.0244 133.064 29.7882 133.064 29.5047V27.8275C134.694 29.5283 136.914 30.4968 139.277 30.4968C144.214 30.4968 148.206 26.2448 148.206 21.0008C148.206 15.7567 144.214 11.5047 139.277 11.5047ZM138.544 26.6937C135.544 26.6937 133.111 24.1897 133.088 21.0716V20.9299C133.135 17.8118 135.544 15.3078 138.544 15.3078C141.568 15.3078 144.001 17.859 144.001 21.0008C144.001 24.1425 141.544 26.6937 138.544 26.6937Z" fill="white"/>
<path d="M159.853 11.5039C154.514 11.5039 150.191 15.7559 150.191 21C150.191 26.2441 154.514 30.496 159.853 30.496C165.191 30.496 169.514 26.2441 169.514 21C169.514 15.7559 165.191 11.5039 159.853 11.5039ZM159.829 26.6929C156.806 26.6929 154.373 24.1417 154.373 21C154.373 17.8582 156.829 15.3071 159.829 15.3071C162.829 15.3071 165.286 17.8582 165.286 21C165.286 24.1417 162.829 26.6929 159.829 26.6929Z" fill="white"/>
<path d="M100.772 11.9763H97.6067C97.3233 11.9763 97.087 12.2126 97.087 12.496V14.1732C95.4571 12.4724 93.2367 11.5039 90.8745 11.5039C85.9374 11.5039 81.9453 15.7559 81.9453 21C81.9453 26.2441 85.9374 30.496 90.8745 30.496C93.213 30.496 95.4571 29.5275 97.087 27.8267V29.5039C97.087 29.7874 97.3233 30.0236 97.6067 30.0236H100.772C101.056 30.0236 101.292 29.7874 101.292 29.5039V12.496C101.292 12.2126 101.056 11.9763 100.772 11.9763ZM91.6067 26.6929C88.5831 26.6929 86.15 24.1417 86.15 21C86.15 17.8582 88.6067 15.3071 91.6067 15.3071C94.6067 15.3071 97.0398 17.811 97.0634 20.9291V21.0708C97.0398 24.1889 94.6067 26.6929 91.6067 26.6929Z" fill="white"/>
<path d="M116.577 11.5039C114.239 11.5039 111.995 12.4724 110.365 14.1732V12.496C110.365 12.2126 110.129 11.9763 109.845 11.9763H106.68C106.396 11.9763 106.16 12.2126 106.16 12.496V36.8267C106.16 37.1102 106.396 37.3464 106.68 37.3464H109.845C110.129 37.3464 110.365 37.1102 110.365 36.8267V27.8267C111.995 29.5275 114.215 30.496 116.577 30.496C121.514 30.496 125.507 26.2441 125.507 21C125.507 15.7559 121.514 11.5039 116.577 11.5039ZM115.845 26.6929C112.845 26.6929 110.412 24.1889 110.389 21.0708V20.9291C110.436 17.811 112.845 15.3071 115.845 15.3071C118.869 15.3071 121.302 17.8582 121.302 21C121.302 24.1417 118.869 26.6929 115.845 26.6929Z" fill="white"/>
<path d="M72.4732 11.5042C70.111 11.5278 67.9614 12.8979 66.9457 15.0475C65.7882 12.8507 63.4732 11.4806 60.9929 11.5042C59.0559 11.5042 57.237 12.4491 56.1032 14.0081V12.4963C56.1032 12.2129 55.8669 11.9766 55.5835 11.9766H52.4181C52.1347 11.9766 51.8984 12.2129 51.8984 12.4963V29.5042C51.8984 29.7877 52.1347 30.0239 52.4181 30.0239H55.5835C55.8669 30.0239 56.1032 29.7877 56.1032 29.5042V19.3231C56.2213 17.0554 57.8039 15.2365 59.741 15.2365C61.7488 15.2365 63.426 16.9137 63.426 19.1105V29.5042C63.426 29.7877 63.6622 30.0239 63.9457 30.0239H67.1347C67.4181 30.0239 67.6543 29.7877 67.6543 29.5042L67.6307 18.9215C67.9142 16.8428 69.4024 15.2365 71.2213 15.2365C73.2291 15.2365 74.9063 16.9137 74.9063 19.1105V29.5042C74.9063 29.7877 75.1425 30.0239 75.426 30.0239H78.615C78.8984 30.0239 79.1347 29.7877 79.1347 29.5042L79.111 17.8113C79.111 14.3152 76.1347 11.5042 72.4732 11.5042Z" fill="white"/>
<path d="M186.546 29.2917L181.066 20.9531L186.499 12.6854C186.641 12.4728 186.57 12.1657 186.357 12.024C186.286 11.9767 186.192 11.9531 186.097 11.9531H182.436C182.152 11.9531 181.893 12.0949 181.751 12.3311L178.562 17.6933L175.373 12.3547C175.231 12.1185 174.971 11.9767 174.688 11.9767H171.026C170.767 11.9767 170.554 12.1893 170.554 12.4492C170.554 12.5437 170.578 12.6382 170.625 12.709L176.058 20.9767L170.578 29.3153C170.436 29.5279 170.507 29.835 170.719 29.9767C170.79 30.024 170.885 30.0476 170.979 30.0476H174.641C174.924 30.0476 175.184 29.9059 175.326 29.6697L178.586 24.2366L181.845 29.6697C181.987 29.9059 182.247 30.0476 182.53 30.0476H186.145C186.404 30.0476 186.617 29.835 186.617 29.5752C186.617 29.4807 186.593 29.3862 186.546 29.2917Z" fill="white"/>
<path d="M21 0C9.40158 0 0 9.40158 0 21C0 32.5984 9.40158 42 21 42C32.5984 42 42 32.5984 42 21C42 9.40158 32.5984 0 21 0ZM30.9685 26.1496C23.7874 33.3307 10.9606 31.0394 10.9606 31.0394C10.9606 31.0394 8.64567 18.2362 15.8504 11.0315C19.8425 7.03937 26.4567 7.20473 30.6378 11.3622C34.8189 15.5197 34.9606 22.1575 30.9685 26.1496Z" fill="white"/>
<path d="M23.4085 12.3066L21.3533 16.535L17.125 18.5901L21.3533 20.6452L23.4085 24.8736L25.4636 20.6452L29.6919 18.5901L25.4636 16.535L23.4085 12.3066Z" fill="white"/>
</svg>
